<svg width="26" height="19" viewBox="0 0 26 19" fill="none" xmlns="http://www.w3.org/2000/svg">
<rect width="26" height="19" fill="#363636"/>
<g id="&#208;&#164;&#208;&#184;&#208;&#189;&#208;&#176;&#208;&#189;&#209;&#129;&#209;&#139;/&#208;&#152;&#209;&#129;&#209;&#130;&#208;&#190;&#209;&#128;&#208;&#184;&#209;&#143; &#208;&#190;&#208;&#191;&#208;&#181;&#209;&#128;&#208;&#176;&#209;&#134;&#208;&#184;&#208;&#185;" clip-path="url(#clip0_298_132)">
<rect width="1440" height="956" transform="translate(-1281 -164)" fill="white"/>
<g id="Group 446" opacity="0.5">
<g id="Group">
<path id="Vector" d="M-330.845 11.256C-330.459 11.5069 -330.093 12.816 -329.778 15.1347C-329.199 19.2468 -327.282 25.1717 -325.631 27.9711C-324.888 29.1914 -324.129 31.294 -323.618 33.4338C-322.563 37.9431 -321.52 40.5998 -319.595 43.6137C-318.001 46.1127 -317.136 46.9416 -313.597 49.2967C-311.32 50.8188 -310.941 51.2945 -310.418 53.5712C-310.068 55.1492 -307.814 60.4158 -306.913 61.8361C-306.646 62.2754 -306.186 62.5579 -305.788 62.5618C-305.229 62.5629 -304.943 62.1467 -304.196 60.0943C-303.359 57.8046 -303.201 57.6209 -302.448 57.646C-301.341 57.6923 -300.27 58.682 -298.184 61.6931C-296.128 64.6553 -294.662 66.2356 -293.962 66.3219C-292.989 66.4418 -291.732 65.5809 -290.475 63.9526C-288.897 61.9349 -286.314 60.2667 -285.069 60.4202C-283.902 60.564 -283.481 61.2254 -282.54 64.3663C-282.14 65.7022 -281.674 66.911 -281.502 67.045C-280.816 67.581 -279.909 67.0607 -277.375 64.6643C-274.144 61.6088 -273.232 61.0665 -271.873 61.4372C-271.347 61.5923 -269.83 62.5468 -268.526 63.5653C-266.325 65.2587 -265.963 65.4388 -264.05 65.8326C-262.902 66.0645 -259.885 66.9103 -257.302 67.7253C-253.373 68.9771 -252.455 69.3611 -251.508 70.1776C-249.609 71.7886 -247.707 74.9126 -247.093 77.5165C-246.531 79.798 -246.441 79.9444 -244.89 80.9257C-244.009 81.4857 -242.236 82.359 -240.991 82.8961C-238.859 83.7685 -238.619 83.9561 -237.83 85.34C-237.086 86.5603 -236.461 88.9174 -235.904 92.3721C-235.851 92.6946 -235.293 93.0794 -234.595 93.3686C-233.19 93.9029 -232.163 95.2936 -230.195 99.4415C-228.928 102.171 -227.165 105.007 -226.227 105.867C-225.996 106.099 -225.074 106.461 -224.271 106.628C-222.669 106.983 -219.209 108.764 -212.48 112.663C-207.605 115.499 -206.845 115.683 -203.842 114.676C-201.012 113.738 -198.79 113.222 -195.038 112.646C-191.248 112.075 -189.343 111.362 -187.294 109.763C-185.966 108.753 -185.71 108.672 -184.373 108.769C-183.153 108.851 -182.675 109.046 -181.494 109.891C-180.138 110.848 -179.991 110.912 -178.735 110.818C-177.11 110.68 -175.437 110.886 -175.185 111.211C-175.096 111.357 -174.254 111.529 -173.359 111.639C-172.46 111.727 -171.203 112.017 -170.617 112.27C-169.192 112.897 -165.714 113.823 -164.981 113.755C-164.695 113.722 -164.086 113.098 -163.692 112.356C-163.263 111.642 -162.499 110.652 -161.999 110.172C-161.216 109.479 -160.873 109.363 -160.017 109.468C-158.539 109.651 -156.404 111.471 -154.947 113.863C-153.04 116.965 -152.653 116.832 -148.778 111.644C-146.518 108.649 -143.985 106.072 -143.07 105.891C-142.193 105.706 -141.36 106.305 -140.791 107.594C-139.988 109.296 -138.556 114.484 -137.812 118.187C-137.476 119.831 -136.926 122.743 -136.529 124.666C-136.166 126.562 -135.794 128.797 -135.687 129.623C-135.471 131.456 -135.18 131.785 -133.743 131.782C-133.141 131.765 -132.294 131.915 -131.894 132.1C-130.912 132.559 -128.005 136.033 -127.877 136.951C-127.843 137.362 -127.19 139.203 -126.449 141.01C-125.041 144.592 -123.447 151.109 -122.564 156.636C-122.279 158.522 -121.879 160.242 -121.712 160.398C-121.049 161.044 -120.289 160.844 -117.562 159.442C-112.462 156.798 -111.674 156.466 -110.244 156.303C-108.939 156.171 -108.55 156.219 -106.674 156.789C-104.875 157.349 -104.214 157.43 -102.3 157.441C-99.4347 157.478 -94.8477 156.531 -89.0082 154.745C-86.0668 153.843 -83.97 153.357 -83.0958 153.374C-81.187 153.406 -78.9742 154.085 -77.1003 155.242C-76.1806 155.807 -74.6612 156.558 -73.7002 156.925C-71.817 157.654 -68.0234 159.747 -67.0122 160.639C-66.605 160.982 -65.9025 161.25 -65.0855 161.35C-63.2959 161.571 -62.9597 162.064 -62.2544 165.762C-61.9326 167.473 -61.5443 169.055 -61.4254 169.251C-60.936 169.966 -60.0091 169.922 -58.9215 169.108C-57.5638 168.147 -56.5155 168.095 -53.8542 168.92C-51.4949 169.662 -51.7122 169.364 -50.4261 174.105C-49.2909 178.421 -49.1812 178.661 -48.2474 178.776C-46.769 178.958 -46.6206 179.586 -47.0458 182.965C-47.4939 186.453 -47.1764 187.802 -45.5704 188.903C-44.8748 189.395 -44.646 189.446 -42.7624 189.407C-40.1944 189.34 -35.9166 188.919 -35.2253 188.665C-34.9208 188.545 -34.3069 187.514 -33.8211 186.333C-32.8013 183.93 -32.3181 183.335 -31.2812 183.147C-30.0017 182.943 -28.2811 183.878 -26.085 185.977C-24.0857 187.871 -24.0125 187.903 -22.6186 187.917C-20.2728 187.958 -19.6686 188.122 -18.8039 188.951C-18.1062 189.624 -17.7744 189.755 -16.7353 189.748C-14.4283 189.784 -13.2021 190.793 -13.0178 192.78C-12.9861 193.393 -12.7185 193.832 -12.3432 193.946C-10.881 194.397 -10.634 194.744 -10.0059 197.282C-9.4303 199.497 -9.20624 199.954 -8.58374 200.03C-7.5722 200.155 -7.26754 199.651 -5.61754 195.565C-3.26623 189.647 -2.02204 186.934 -1.5023 186.546C-1.2138 186.311 -0.637014 186.224 0.0243778 186.306C1.85295 186.531 2.11172 186.247 2.71287 183.364C3.01573 181.911 3.4421 180.632 3.62985 180.497C3.813 180.384 4.44247 180.236 5.05359 180.176C6.02863 180.093 6.17287 179.975 6.74129 178.398C7.52978 176.147 7.96713 175.772 9.40665 175.95C10.6905 176.108 11.0431 175.948 11.8607 174.898C12.1859 174.486 12.8612 174.118 13.4381 174.031C14.5917 173.857 14.9328 173.561 15.6523 172.024C16.2435 170.72 17.237 170.165 17.9577 170.728C18.1979 170.916 18.7829 172.703 19.2876 174.684C19.7924 176.665 20.375 178.656 20.5693 179.064C21.0472 180.025 22.196 180.257 23.5192 179.653C24.6638 179.139 29.9149 173.285 32.8328 169.243C37.2509 163.174 38.2856 162.805 43.7932 165.289C45.3263 165.975 46.7999 166.563 47.0722 166.596C48.3561 166.755 48.9447 166.037 50.031 163.124C51.53 158.997 51.9125 158.502 53.4571 158.941C54.6311 159.244 55.0936 158.939 56.2412 157.072C56.7841 156.191 57.5123 155.377 57.8511 155.284C58.1945 155.168 58.9428 155.215 59.7804 155.409C60.9979 155.694 61.2016 155.674 61.6138 155.228C62.2183 154.626 63.1979 154.521 63.6989 154.989C63.9345 155.198 63.9796 156.513 63.8324 157.985C63.5289 160.589 63.5243 160.611 64.4969 160.731C65.3918 160.841 65.4879 160.762 66.6771 158.313C67.9418 155.692 70.2941 152.258 72.5406 149.713C74.1208 147.876 74.9638 146.513 78.9936 138.86C80.7691 135.512 82.4826 132.654 82.7527 132.506C83.0617 132.364 83.9109 132.31 84.6112 132.397C86.323 132.608 86.481 132.424 88.0758 128.986C89.5903 125.742 90.3094 124.973 91.5932 125.131C92.1379 125.198 92.7283 125.429 92.9639 125.638C93.6959 126.338 94.7877 126.269 95.6761 125.453C96.8966 124.385 97.6795 124.075 98.8466 124.219C100.247 124.392 100.744 124.114 101.692 122.628C102.579 121.248 103.581 121.033 104.695 122.005C105.672 122.871 106.565 122.8 108.271 121.701C110.155 120.511 113.089 119.451 114.309 119.533C114.781 119.569 116.303 119.734 117.664 119.902L120.159 120.187L121.389 118.69C122.8 116.9 123.692 116.446 125.287 116.643C126.26 116.762 126.935 117.162 129.049 118.89C132.389 121.626 133.789 122.183 138.492 122.785C142.461 123.274 142.214 123.311 144.723 121.612C145.561 121.038 147.653 119.806 149.318 118.905L152.372 117.272L152.245 118.453C152.133 119.568 152.032 119.668 150.239 120.418C149.191 120.853 147.604 121.764 146.704 122.443C145.805 123.122 144.527 123.89 143.87 124.17C142.735 124.64 142.613 124.647 138.451 124.134C134.521 123.65 134.063 123.548 132.013 122.664C129.997 121.806 127.485 120.074 126.216 118.698C125.66 118.111 124.616 118.14 123.963 118.782C123.709 119.044 123.112 119.806 122.692 120.476C121.682 122.067 121.183 122.164 117.941 121.448C113.938 120.549 112.974 120.768 108.373 123.7C106.99 124.591 106.82 124.637 105.303 124.45C103.358 124.211 103.101 124.292 101.977 125.666C100.919 126.912 100.488 127.062 98.6759 126.952C97.4949 126.874 97.1561 126.968 96.2815 127.718C94.9786 128.799 94.1844 128.972 92.745 128.41C92.038 128.165 91.459 128.071 91.198 128.175C90.9805 128.261 90.3528 129.357 89.7709 130.617C88.5793 133.27 87.8627 133.836 85.8715 133.816C85.1185 133.791 84.3861 133.859 84.251 133.932C84.1549 134.011 82.6819 136.674 81.0163 139.877C77.5844 146.384 76.3612 148.423 74.0917 151.078C71.6069 154 70.4158 155.884 68.4821 159.8C66.3445 164.119 64.9361 165.706 63.3958 165.629C62.0158 165.549 61.3777 164.59 61.2003 162.378C61.0455 160.824 60.9861 160.727 59.6635 160.18C58.1944 159.57 57.2515 159.499 56.9171 159.954C55.1879 162.315 54.8994 162.55 53.7642 162.636C52.6679 162.726 52.6152 162.788 51.9528 164.625C51.0795 167.09 50.3399 167.767 48.5203 167.881C46.8609 167.993 45.4765 167.551 43.0215 166.12C41.3489 165.146 39.358 164.743 38.4308 165.17C38.1607 165.317 36.6789 167.257 35.142 169.46C33.644 171.668 31.5828 174.281 30.6142 175.29C29.6501 176.278 28.2417 177.865 27.4081 178.8C26.1348 180.314 25.7639 180.562 23.8915 181.121C19.9772 182.286 19.3868 182.056 18.3401 179.037C17.8557 177.533 17.515 177.062 16.9703 176.995C16.4256 176.928 16.1028 177.136 15.7133 177.856C15.0376 178.991 14.7239 179.156 13.3187 179.005C12.4971 178.926 12.0714 179.055 11.5333 179.53C11.1348 179.91 10.3565 180.198 9.70649 180.253C8.77496 180.319 8.53913 180.493 8.11755 181.366C7.30871 183.14 7.1072 183.341 6.08868 183.441C5.15254 183.529 5.05178 183.63 4.70083 185.121C4.51727 186.002 4.02666 187.589 3.64618 188.648C2.83255 190.828 2.14801 191.24 0.562256 190.616C0.0107971 190.39 -0.490369 190.306 -0.75135 190.409C-0.968822 190.495 -1.58511 191.728 -2.12141 193.152C-3.15054 195.982 -7.13966 204.588 -7.81762 205.543C-8.08557 205.871 -8.59154 206.192 -9.00813 206.276C-10.3014 206.546 -10.857 205.574 -11.1918 202.395C-11.3718 200.77 -11.6617 199.29 -11.8241 199.112C-12.03 198.951 -12.6638 198.737 -13.2863 198.661C-15.076 198.44 -15.4646 197.625 -15.3142 194.415C-15.1548 191.545 -15.4086 191.04 -16.7339 191.464C-17.0773 191.579 -17.5238 191.998 -17.7758 192.441C-17.9843 192.867 -18.4927 193.391 -18.8247 193.644C-19.3741 193.983 -19.6167 193.998 -20.2025 193.745C-20.7494 193.497 -20.8797 193.165 -20.7763 192.478C-20.6708 191.972 -20.6177 191.143 -20.6724 190.64C-20.7612 189.726 -20.8001 189.721 -22.5119 189.51C-25.0751 189.171 -25.5785 188.906 -27.2163 187.192C-29.8583 184.361 -30.7509 184.431 -31.8305 187.504C-32.1675 188.546 -32.7379 189.559 -33.1042 189.785C-33.7933 190.219 -43.079 190.925 -45.1021 190.676C-46.6583 190.484 -48.1339 189.332 -49.1469 187.491C-49.7574 186.4 -49.8188 185.738 -49.5247 183.562C-49.1664 181.078 -49.2121 180.914 -50.0381 180.474C-51.0746 179.895 -51.1843 179.655 -52.5641 174.79C-53.1535 172.641 -53.8666 170.702 -54.0976 170.47C-54.3286 170.238 -55.006 170.042 -55.7155 170C-56.8186 169.931 -57.1276 170.074 -58.6709 171.351C-62.2085 174.346 -63.1489 173.688 -64.2007 167.441C-64.7346 164.26 -64.6797 164.38 -65.8856 163.848C-66.4668 163.573 -67.1531 163.037 -67.3909 162.646C-68.0198 161.643 -71.7972 159.281 -74.6231 158.098C-75.9457 157.551 -77.7579 156.673 -78.7212 156.126C-79.6456 155.583 -81.0414 155.004 -81.8446 154.838C-83.1834 154.56 -83.561 154.649 -88.5878 156.174C-97.0643 158.741 -102.544 159.374 -106.738 158.248C-107.873 157.95 -109.221 157.716 -109.702 157.725C-110.304 157.741 -112.275 158.581 -114.915 159.949C-119.305 162.252 -121.576 163.191 -122.549 163.071C-123.638 162.937 -124.045 161.826 -124.857 156.918C-125.925 150.172 -127.083 145.582 -128.512 141.907C-129.193 140.198 -129.892 138.193 -130.125 137.397C-130.571 135.897 -132.297 133.653 -133.114 133.552C-133.387 133.518 -134.06 133.684 -134.63 133.93C-136.47 134.719 -137.607 134.24 -137.753 132.642C-137.969 130.042 -138.635 125.58 -138.996 124.249C-139.22 123.409 -139.535 121.858 -139.63 120.785C-139.849 118.771 -141.822 110.627 -142.339 109.661C-142.479 109.373 -142.9 109.095 -143.211 109.057C-143.522 109.018 -144.035 109.181 -144.323 109.416C-144.77 109.835 -148.036 114.015 -150.96 117.898C-153.058 120.687 -154.168 120.46 -155.805 116.827C-157.163 113.771 -158.821 111.58 -159.817 111.57C-160.293 111.556 -160.888 112.115 -161.923 113.635C-162.72 114.779 -163.538 115.829 -163.721 115.942C-164.319 116.32 -165.619 116.047 -166.74 115.299C-167.298 114.914 -168.064 114.571 -168.415 114.528C-168.765 114.485 -169.808 114.131 -170.691 113.773C-172.096 113.239 -172.554 113.138 -173.495 113.247C-174.431 113.335 -174.777 113.27 -175.534 112.883C-176.609 112.299 -177.543 112.184 -178.603 112.482C-179.876 112.845 -180.363 112.694 -182.196 111.34C-183.2 110.606 -184.172 110.103 -184.497 110.13C-184.783 110.163 -185.608 110.671 -186.285 111.242C-187.76 112.573 -189.898 113.257 -195.011 114.049C-197.076 114.382 -200.132 115.066 -201.757 115.588C-205.095 116.666 -206.097 116.881 -207.186 116.747C-208.315 116.608 -211.035 115.302 -214.078 113.437C-219.181 110.348 -223.333 108.256 -225.203 107.845C-226.352 107.613 -227.231 107.234 -227.848 106.751C-229.015 105.84 -231.16 102.347 -232.946 98.4704C-234.461 95.2136 -234.747 94.8623 -236.585 94.2972C-237.969 93.8557 -238.083 93.6384 -238.683 89.8172C-238.868 88.5981 -239.325 86.9616 -239.684 86.195C-240.283 84.8571 -240.416 84.7278 -243.042 83.5463C-248.399 81.1027 -248.699 80.8175 -249.626 76.8431C-250.076 74.9818 -250.972 73.5394 -252.994 71.3714C-254.012 70.3205 -254.408 70.1137 -257.811 69.017C-259.824 68.3399 -262.893 67.5554 -264.543 67.2391L-267.614 66.6574L-269.435 65.056C-270.79 63.8958 -271.494 63.4478 -272.126 63.4151C-272.996 63.3756 -273.092 63.454 -277.557 67.2604C-280.19 69.5544 -281.465 70.1196 -282.778 69.5288C-283.467 69.1956 -283.691 68.7391 -284.799 64.6747C-285.194 63.3167 -285.876 62.7587 -286.703 63.0857C-286.963 63.189 -287.808 63.9878 -288.589 64.8622C-290.256 66.7335 -292.125 68.0382 -293.255 68.102C-293.697 68.1153 -294.535 67.9218 -295.159 67.6642C-296.361 67.1098 -297.088 66.3881 -299.19 63.6459C-300.976 61.3038 -301.956 61.025 -302.46 62.6785C-303.698 66.702 -305.905 67.333 -307.929 64.2167C-309.141 62.3743 -311.342 57.0465 -312.244 53.9104C-312.889 51.6413 -313.071 51.3705 -314.6 50.2791C-319.434 46.8616 -319.738 46.5983 -321.419 43.7501C-323.431 40.3869 -324.684 37.2076 -325.547 33.3089C-326.097 30.7805 -327.046 28.632 -328.69 26.3751C-328.937 26.0286 -329.488 24.6514 -329.922 23.2887C-330.574 21.2445 -330.841 20.8052 -331.502 20.7237C-332.242 20.6326 -332.317 20.8038 -333.076 23.4868C-334.021 26.8693 -334.726 27.5725 -336.699 27.081C-337.381 26.9067 -338.246 26.8452 -338.866 26.9493C-340.359 27.2168 -340.942 26.7612 -342.101 24.4738C-343.121 22.4745 -343.155 22.4477 -344.453 22.3555C-345.279 22.2988 -346.927 21.7797 -349.142 20.9198C-350.986 20.1958 -352.81 19.5647 -353.16 19.5215C-353.549 19.4736 -354.856 19.8091 -356.113 20.2863C-358.143 21.0292 -358.56 21.1133 -359.869 20.8843L-361.377 20.6532L-362.939 22.7858C-363.784 23.9683 -365.254 25.6607 -366.2 26.56C-367.606 27.9442 -368.932 29.9027 -370.96 33.6935C-372.721 36.9752 -374.251 37.4188 -376.959 35.4822C-377.826 34.8562 -378.943 34.854 -379.076 35.4922C-379.177 35.9764 -382.604 37.6759 -384.285 38.0783C-385.122 38.2685 -386.196 38.249 -388.141 38.0093C-390.825 37.6784 -390.869 37.6956 -392.618 38.4281C-395.015 39.3968 -397.062 41.1761 -399.467 44.2884C-401.656 47.1336 -402.325 47.6607 -403.842 47.8574C-404.705 47.9768 -405.202 47.8705 -406.787 47.2461C-409.407 46.2234 -410.357 45.9935 -410.664 46.3168C-410.778 46.4833 -412.02 48.9939 -413.432 51.9351C-416.447 58.3581 -416.642 58.7179 -422.638 67.9563C-425.231 71.9708 -427.772 75.9241 -428.223 76.7489C-428.708 77.5468 -429.336 78.6433 -429.645 79.1695C-429.994 79.691 -430.346 80.6181 -430.514 81.2296C-430.661 81.9338 -430.965 82.438 -431.348 82.5489C-432.504 82.9256 -433.387 82.1847 -434.276 80.1338C-435.515 77.2722 -436.791 75.3542 -437.452 75.2727C-437.803 75.2295 -438.521 75.615 -439.069 76.1344C-440.562 77.5531 -441.736 77.6342 -443.717 76.4193C-444.353 76.0249 -445.12 75.6821 -445.47 75.6389C-446.131 75.5574 -447.429 76.2326 -447.535 76.7388C-447.576 76.9369 -448.146 77.1826 -448.815 77.326C-449.483 77.4693 -450.536 77.9265 -451.147 78.3703C-452.24 79.2064 -453.846 79.6404 -455.803 79.6475C-456.765 79.6644 -457.302 79.3724 -460.276 77.1774C-464.049 74.4099 -466.44 73.0542 -467.763 72.8912C-468.424 72.8096 -468.946 73.0162 -469.908 73.8006C-472.461 75.9013 -473.418 75.8963 -477.046 73.7785C-480.494 71.7508 -481.359 71.6893 -484.864 73.3793C-487.486 74.6589 -489.388 75.1694 -490.949 74.9996C-491.882 74.8845 -499.167 78.0499 -502.088 79.8118C-503.004 80.3761 -505.122 82.3047 -506.919 84.2276C-508.669 86.1113 -510.652 87.9662 -511.298 88.3833C-511.939 88.7783 -514.862 90.3593 -517.85 91.8647C-528.477 97.2818 -535.279 102.154 -543.784 110.407C-550.642 117.078 -556.136 123.331 -559.255 127.958C-560.075 129.211 -561.076 129.607 -562.082 129.077C-563.016 128.578 -563.114 127.708 -562.59 123.281C-562.102 119.029 -561.975 115.93 -562.18 113.467C-562.298 112.12 -562.426 111.969 -563.931 111.151C-565.579 110.248 -566.407 110.011 -566.874 110.337C-567.014 110.433 -567.698 110.461 -568.321 110.384C-569.177 110.279 -569.593 110.363 -569.909 110.73C-570.518 111.355 -571.407 111.404 -572.331 110.861C-573.441 110.25 -574.027 110.381 -575.101 111.513C-576.284 112.789 -577.116 113.138 -578.477 112.97C-579.294 112.869 -579.944 112.541 -580.724 111.881C-582.245 110.564 -583.095 110.618 -584.024 112.016C-585.397 114.194 -586.841 114.039 -587.89 111.607C-589.12 108.701 -590.067 108.268 -593.018 109.214C-593.917 109.509 -596.041 110.128 -597.653 110.584C-600.658 111.41 -607.515 114.244 -609.751 115.594C-610.663 116.136 -611.974 116.494 -614.746 116.965C-619.335 117.731 -621.693 118.705 -625.096 121.242C-628.681 123.893 -633.98 128.635 -637.273 132.18C-638.864 133.88 -640.895 135.774 -641.82 136.382C-642.706 136.995 -644.22 138.321 -645.15 139.335C-646.808 141.162 -647.613 141.582 -648.652 141.206C-649.584 140.888 -649.878 139.813 -649.68 137.716C-649.391 134.794 -649.788 134.407 -652.226 135.19C-655.177 136.135 -658.221 136.189 -659.99 135.294C-661.26 134.686 -663.783 132.05 -664.908 130.173L-665.834 128.682L-669.157 127.776C-672.479 126.869 -677.058 125.289 -683.049 123.016C-687.079 121.481 -689.633 121.098 -691.212 121.784C-693.753 122.87 -702.69 125.539 -704.658 125.793C-706.995 126.092 -709.384 126.068 -715.319 125.63L-719.255 125.37L-723.406 127.094C-727.822 128.942 -728.755 129.211 -730.389 129.009C-731.751 128.842 -732.586 128.445 -735.332 126.685C-736.595 125.852 -738.242 124.949 -738.984 124.677C-740.91 123.965 -744.071 123.621 -745.655 123.945C-747.117 124.261 -749.714 125.612 -751.199 126.806C-752.397 127.764 -753.802 127.997 -755.047 127.46C-755.525 127.266 -756.745 126.032 -757.751 124.734C-760.445 121.196 -760.94 121.271 -762.99 125.555C-764.615 128.944 -765.201 129.459 -767.185 129.215C-769.091 128.98 -769.776 128.624 -770.871 127.18L-771.848 125.931L-773.949 125.672C-775.116 125.528 -776.532 125.241 -777.045 125.02C-777.635 124.789 -778.137 124.704 -778.398 124.808C-778.659 124.911 -779.291 126.029 -779.873 127.29C-780.459 128.572 -781.13 129.685 -781.348 129.771C-781.565 129.857 -782.163 129.852 -782.659 129.745C-783.389 129.61 -783.714 129.254 -784.199 128.133C-785.008 126.273 -785.191 126.002 -785.912 125.823C-786.672 125.639 -787.249 126.11 -788.211 127.661C-788.944 128.88 -788.928 128.995 -788.269 129.663C-787.704 130.207 -787.672 130.437 -788.057 130.75C-789.385 131.761 -794.836 131.111 -801.099 129.188C-806.28 127.624 -809.257 126.399 -811.904 124.741C-812.961 124.069 -815.892 122.624 -818.416 121.523C-820.94 120.422 -824.633 118.612 -826.672 117.481C-832.078 114.512 -832.044 114.539 -832.609 114.762C-832.87 114.866 -833.716 116.048 -834.51 117.372C-836.18 120.214 -837.946 122.366 -838.846 122.662C-839.828 122.97 -840.67 122.415 -840.848 121.354C-841.359 118.447 -845.35 109.264 -847.486 106.111C-848.575 104.442 -848.682 104.384 -849.98 104.292C-852.342 104.136 -855.965 103.712 -857.148 103.453L-858.292 103.199L-858.646 105.661C-858.965 107.767 -859.187 108.258 -860.027 109.035C-861.065 109.991 -862.086 110.294 -863.681 110.097C-865.237 109.906 -866.385 108.906 -867.902 106.417C-869.626 103.586 -870.26 103.372 -871.735 105.087C-873.099 106.656 -874.892 107.406 -876.546 107.112C-877.549 106.943 -878.112 106.58 -879.477 105.283C-881.767 103.06 -883.273 102.242 -890.119 99.4796C-893.394 98.1505 -896.894 96.5678 -897.883 95.9493C-898.91 95.3261 -900.072 94.7765 -900.461 94.7285C-900.889 94.6758 -902.995 94.0551 -905.125 93.3636C-910.171 91.7259 -913.036 91.305 -914.231 92.0606C-914.685 92.3208 -915.287 93.1044 -915.546 93.7722C-915.862 94.5233 -916.437 95.1748 -917.064 95.5038C-918.362 96.1791 -919.988 98.236 -921.244 100.813C-922.694 103.749 -923.898 104.549 -927.29 104.74C-929.76 104.91 -930.366 104.564 -931.329 102.482C-931.797 101.476 -932.758 99.9578 -933.462 99.1261L-934.743 97.6138L-936.404 105.581L-938.07 113.57L-939.043 113.45L-940.016 113.33L-938.359 105.385C-936.716 97.5061 -936.702 97.44 -937.503 97.4542C-938.989 97.4968 -940.867 96.7461 -942.778 95.3819C-944.864 93.9058 -945.649 93.651 -946.414 94.2565C-947.121 94.7788 -947.929 94.6341 -948.565 93.856C-949.013 93.3267 -949.345 93.1954 -950.682 93.0984L-952.291 92.9679L-953.205 94.8642C-956.254 101.26 -960.284 103.36 -963.092 99.9887C-963.472 99.513 -964.021 99.0842 -964.332 99.0458C-964.644 99.0074 -965.436 99.3613 -966.095 99.8443C-966.885 100.379 -968.059 100.844 -969.305 101.074L-971.262 101.465L-978.095 100.555C-984.89 99.6497 -985.007 99.6353 -988.451 99.8879C-990.353 100.015 -993.233 100.427 -994.83 100.817C-998.143 101.583 -1001.55 102.043 -1006.99 102.479C-1009.1 102.648 -1011.13 102.826 -1011.55 102.91C-1012.58 103.076 -1013.41 102.658 -1014.3 101.555C-1014.93 100.755 -1015.44 100.534 -1019.6 99.2095C-1022.66 98.2221 -1024.58 97.4665 -1025.34 96.9209C-1026.01 96.4776 -1026.69 96.1004 -1026.84 96.0812C-1027.04 96.0573 -1028.12 96.2847 -1029.26 96.5734C-1030.4 96.8621 -1031.48 97.0895 -1031.68 97.0655C-1031.83 97.0464 -1031.93 96.741 -1031.85 96.3669C-1031.75 95.8607 -1031.3 95.6226 -1029.76 95.157C-1027.18 94.4591 -1025.86 94.6002 -1024.16 95.8255C-1022.94 96.6756 -1019.05 98.1034 -1014.29 99.4119C-1013.01 99.773 -1012.66 100.019 -1012.1 100.946C-1011.59 101.776 -1011.21 102.071 -1010.51 102.157C-1009.89 102.234 -1009.51 102.145 -1009.37 101.825C-1009.21 101.46 -1008.17 101.272 -1004.3 100.869C-1001.65 100.609 -997.86 100.037 -995.855 99.6074C-993.763 99.1429 -990.641 98.7151 -988.414 98.5607L-984.567 98.29L-978.369 99.1893C-969.812 100.447 -968.984 100.301 -965.787 97.2186C-963.694 95.2192 -962.683 95.3439 -961.945 97.7374C-961.419 99.4275 -960.795 100.069 -959.776 99.9686C-958.641 99.8827 -956.323 96.805 -955.097 93.7958C-954.678 92.7414 -954.117 91.7721 -953.851 91.6469C-953.407 91.4307 -952.532 91.4482 -946.667 91.8326L-944.499 91.9643L-941.868 93.8913C-939.237 95.8183 -938.022 96.3067 -936.848 95.8419C-936.544 95.7214 -936.266 95.3493 -936.198 95.0191L-936.069 94.4029L-938.987 94.0433L-941.905 93.6836L-939.564 82.4595L-937.224 71.2355L-934.306 71.5951L-931.388 71.9547L-929.576 63.2616L-927.763 54.5684L-926.791 54.6883L-925.818 54.8082L-927.63 63.5014L-929.443 72.1945L-926.914 72.5062L-924.385 72.8179L-926.726 84.042L-929.066 95.2661L-931.595 94.9544L-934.124 94.6427L-934.261 95.3029C-934.335 95.6551 -934.243 95.9824 -934.049 96.0063C-933.504 96.0735 -930.439 99.747 -929.516 101.441C-928.562 103.184 -928.029 103.498 -926.498 103.235C-925.01 102.99 -924.655 102.627 -923.532 100.305C-922.3 97.8383 -920.765 95.8377 -919.172 94.7023C-918.522 94.2633 -917.96 93.6778 -917.91 93.4357C-917.717 92.5114 -916.469 91.3108 -915.116 90.7552C-913.841 90.19 -913.599 90.1747 -911.148 90.4768C-909.202 90.7166 -907.532 91.1257 -904.616 92.0719C-902.486 92.7634 -900.225 93.4033 -899.603 93.48C-898.825 93.5759 -897.877 94.0087 -896.653 94.8368C-895.429 95.6648 -892.992 96.8004 -889.274 98.2971C-882.418 101.016 -880.151 102.198 -878.074 104.102C-877.17 104.936 -876.195 105.62 -875.923 105.654C-875.184 105.745 -874.16 104.855 -873.011 103.169C-871.9 101.477 -871.009 100.842 -870.075 100.957C-868.908 101.101 -867.998 102.093 -866.429 104.905C-865.615 106.36 -864.714 107.78 -864.405 108.022C-863.63 108.704 -862.483 108.755 -861.918 108.148C-861.155 107.361 -860.691 104.371 -861.146 103.299C-861.875 101.629 -861.813 101.14 -860.863 100.986C-860.161 100.87 -859.43 101.005 -857.27 101.745C-853.721 102.905 -852.286 103.104 -851.361 102.496C-850.952 102.253 -850.343 102.012 -850.018 101.984C-848.921 101.894 -846.448 104.005 -845.042 106.255C-843.958 107.946 -840.126 115.98 -839.443 117.87C-839.306 118.361 -838.425 118.538 -837.793 118.187C-837.571 118.079 -836.783 116.979 -836.055 115.782C-834.65 113.45 -833.728 112.661 -832.599 112.8C-832.171 112.852 -830.51 113.689 -828.876 114.658C-824.939 117.017 -821.294 118.866 -816.461 120.951C-814.269 121.921 -811.519 123.276 -810.35 123.985C-809.185 124.715 -807.382 125.637 -806.391 126.053C-802.243 127.783 -793.178 130.051 -792.393 129.539C-792.21 129.426 -792.189 128.368 -792.305 127.202C-792.642 124.226 -792.541 123.742 -791.511 123.778C-791.074 123.787 -790.479 123.996 -790.248 124.227C-789.58 124.852 -788.93 124.796 -787.822 124.075C-786.386 123.123 -784.865 123.288 -783.494 124.563C-782.458 125.526 -781.54 125.526 -780.974 124.535C-780.09 122.974 -778.463 122.633 -776.348 123.593C-774.781 124.305 -774.319 124.385 -772.7 124.088C-771.494 123.853 -771.416 123.862 -770.833 124.318C-770.49 124.586 -769.776 125.374 -769.248 126.093C-768.537 127.084 -768.086 127.411 -767.347 127.502C-766.452 127.612 -766.395 127.529 -765.164 124.881C-763.716 121.764 -762.475 120.405 -760.994 120.384C-759.188 120.336 -758.003 121.159 -756.226 123.545C-755.135 125.011 -754.348 125.831 -753.881 125.888C-753.492 125.936 -752.531 125.535 -751.549 124.844C-749.703 123.649 -746.963 122.565 -745.338 122.426C-744.766 122.362 -743.23 122.461 -741.907 122.624C-738.873 122.998 -736.662 123.88 -733.393 125.998C-732.061 126.885 -730.62 127.627 -730.114 127.689C-729.492 127.766 -728.075 127.286 -725.442 126.143C-720.612 124.029 -719.628 123.902 -713.261 124.371C-705.8 124.952 -705.344 124.873 -696.396 121.958C-693.31 120.938 -690.335 120.064 -689.767 120.021C-688.22 119.873 -685.087 120.733 -679.311 122.89C-676.35 123.999 -671.84 125.526 -669.321 126.266C-666.767 127.032 -664.49 127.786 -664.206 127.957C-663.966 128.144 -663.394 128.847 -662.974 129.508C-661.933 131.217 -659.527 133.838 -658.618 134.266C-657.451 134.794 -655.705 134.648 -652.894 133.798C-649.614 132.803 -648.488 132.761 -647.657 133.563C-647.323 133.875 -647.122 134.442 -647.166 134.843C-647.308 135.909 -647.032 136.688 -646.345 136.84C-645.434 137.065 -642.394 134.731 -639.575 131.738C-634.848 126.677 -628.563 121.221 -624.437 118.66C-621.825 117.04 -620.026 116.45 -615.263 115.615C-612.569 115.134 -611.408 114.735 -609.972 113.783C-608.725 112.967 -601.708 110.129 -599.428 109.53C-598.291 109.241 -596.249 108.635 -594.88 108.194C-593.555 107.771 -591.996 107.376 -591.424 107.311C-589.76 107.178 -588.151 107.692 -587.193 108.645C-586.735 109.131 -586.142 109.542 -585.87 109.576C-585.559 109.614 -584.936 109.307 -584.455 108.915C-583.148 107.812 -582.379 107.952 -580.313 109.719C-579.259 110.594 -578.27 111.212 -577.945 111.185C-577.659 111.152 -576.732 110.341 -575.933 109.379C-575.129 108.394 -574.236 107.556 -573.945 107.502C-573.693 107.442 -572.984 107.485 -572.366 107.583C-571.558 107.728 -571.185 107.661 -570.965 107.372C-570.626 106.895 -569.564 106.777 -568.633 107.095C-568.262 107.231 -567.655 107.193 -567.182 107.026C-566.06 106.622 -565.124 106.918 -564.301 107.945C-562.876 109.724 -562.567 109.965 -561.633 110.08C-561.127 110.142 -560.541 110.395 -560.397 110.661C-559.908 111.376 -559.606 116.244 -559.803 119.674C-559.922 121.397 -559.88 122.915 -559.747 123.044C-559.1 123.575 -558.275 123.067 -556.581 121.064C-552.01 115.6 -543.551 107.185 -538.598 103.145C-531.342 97.2446 -528.595 95.5516 -514.813 88.4014C-512.666 87.2891 -511.844 86.6004 -509.279 83.869C-504.802 79.0483 -504.802 79.0483 -496.945 75.4343C-493.459 73.8324 -492.776 73.623 -491.387 73.6588C-489.765 73.7234 -488.996 73.4796 -484.673 71.5066L-482.636 70.5388L-480.441 70.9221C-478.709 71.226 -477.894 71.5295 -476.139 72.4908C-474.961 73.1552 -473.725 73.7364 -473.453 73.77C-473.142 73.8083 -472.35 73.4545 -471.695 72.9934C-469.918 71.7451 -469.071 71.5109 -467.513 71.8836C-465.764 72.3023 -462.65 74.0179 -459.109 76.5538C-456.473 78.4588 -456.073 78.6436 -454.961 78.6678C-453.368 78.6836 -451.209 77.7081 -451.382 77.0095C-451.435 76.687 -451.032 76.2852 -450.009 75.7793C-449.246 75.3766 -448.161 74.7654 -447.65 74.422C-446.49 73.6396 -445.338 73.6686 -443.526 74.5466C-442.725 74.9162 -441.824 75.1854 -441.538 75.1529C-441.213 75.1252 -440.645 74.6986 -440.267 74.226C-439.392 73.0923 -438.861 72.8417 -437.772 72.976C-436.682 73.1102 -435.053 74.4848 -434.047 76.1664C-432.785 78.1505 -431.405 78.2303 -430.534 76.3511C-430.255 75.7761 -429.393 74.3247 -428.592 73.1594C-423.305 65.4136 -418.745 57.8943 -416.808 53.7763C-414.348 48.4813 -412.696 45.344 -412.023 44.7949C-411.191 44.0622 -409.947 44.2156 -407.695 45.2832C-405.59 46.2876 -404.485 46.5367 -403.731 46.1781C-403.466 46.0528 -402.719 45.1516 -402.041 44.1967C-400.17 41.5379 -398.082 39.5606 -395.662 38.0981C-393.011 36.4835 -391.601 36.2284 -388.099 36.66C-385.609 36.9669 -385.488 36.9593 -383.7 36.2316C-382.391 35.6932 -381.553 35.1193 -380.696 34.0736C-379.212 32.3152 -378.276 32.2274 -376.448 33.6039C-374.59 35.0293 -374.18 34.7864 -371.812 30.699C-370.689 28.7606 -369.42 26.8854 -368.992 26.5544C-367.559 25.4218 -365.292 22.5861 -363.931 20.2707C-361.943 16.8589 -361.693 16.6187 -360.505 16.8554C-359.736 16.9954 -359.32 17.295 -358.938 17.9515C-358.284 19.0254 -357.675 19.1682 -355.924 18.6165C-354.168 18.0428 -352.857 18.069 -351.077 18.7173C-345.464 20.6959 -346.033 20.5579 -345.315 20.1725C-344.953 19.9688 -344.623 19.5354 -344.559 19.2273C-344.495 18.9192 -344.165 18.4857 -343.803 18.282C-342.635 17.6584 -341.908 18.3802 -341.049 21.1497C-340.624 22.5565 -340.059 23.8677 -339.815 24.0333C-339.545 24.2697 -338.888 24.3733 -337.659 24.4119L-335.871 24.4516L-334.318 17.9612C-333.016 12.4784 -332.669 11.3924 -332.104 11.1686C-331.543 10.9668 -331.305 10.9736 -330.845 11.256Z" fill="#008A8A" fill-opacity="0.05"/>
<path id="Vector_2" d="M0.251653 10.7327V17.8269H2.29184H4.33203V20.6646V23.5023H2.29184H0.251653V34.6347V45.7672H-0.533035H-1.31772V34.6347C-1.31772 30.2872 -1.31772 27.8498 -1.31772 23.5023H-3.51485H-5.71198V20.6646V17.8269H-3.51485H-1.31772V10.7327V3.63844H-0.533035H0.251653V10.7327Z" fill="#008A8A" fill-opacity="0.1"/>
</g>
<g id="Group 19">
</g>
</g>
<g id="Group 690">
<rect id="Rectangle 154" y="2" width="26" height="1" fill="#008080"/>
<rect id="Rectangle 156" y="9" width="26" height="1" fill="#008080"/>
<rect id="Rectangle 155" x="3" width="5" height="5" fill="#008080"/>
<rect id="Rectangle 157" x="17" y="7" width="5" height="5" fill="#008080"/>
<rect id="Rectangle 158" y="16" width="26" height="1" fill="#008080"/>
<rect id="Rectangle 159" x="9" y="14" width="5" height="5" fill="#008080"/>
</g>
</g>
<defs>
<clipPath id="clip0_298_132">
<rect width="1440" height="956" fill="white" transform="translate(-1281 -164)"/>
</clipPath>
</defs>
</svg>
